PathFileType	4	(X/Y/Z)	/Users/itak/Documents/Research/Walk-IL/dataset/trc/00377_00012.trc
DataRate	CameraRate	NumFrames	NumMarkers	Units	OrigDataRate	OrigDataStartFrame	OrigNumFrames
100.000000	100.000000	4	59	mm	100.000000	73	147
Frame#	Time	RPSI			LPSI			L3			STRN			T10			C7			CLAV			RBAK			LBAK			LSHO			LUPA			LAEL			LAOL			LWTS			LWPS			LFRA			LHPS			LHTS			RSHO			RUPA			RAEL			RAOL			RWTS			RWPS			RFRA			RIFD			RHTS			RHPS			RBHD			LFHD			RFHD			LBHD			RHIP			RASI			LASI			LKNE			LTHI			LANK			LTIP			LTOE			LMT1			LMT5			LHEE			RKNE			RTHI			RANK			RTIP			RTOE			RMT1			RMT5			RHEE			LIFD			LHIP			*53			*54			*55			*56			*57			*58			
		X1	Y1	Z1	X2	Y2	Z2	X3	Y3	Z3	X4	Y4	Z4	X5	Y5	Z5	X6	Y6	Z6	X7	Y7	Z7	X8	Y8	Z8	X9	Y9	Z9	X10	Y10	Z10	X11	Y11	Z11	X12	Y12	Z12	X13	Y13	Z13	X14	Y14	Z14	X15	Y15	Z15	X16	Y16	Z16	X17	Y17	Z17	X18	Y18	Z18	X19	Y19	Z19	X20	Y20	Z20	X21	Y21	Z21	X22	Y22	Z22	X23	Y23	Z23	X24	Y24	Z24	X25	Y25	Z25	X26	Y26	Z26	X27	Y27	Z27	X28	Y28	Z28	X29	Y29	Z29	X30	Y30	Z30	X31	Y31	Z31	X32	Y32	Z32	X33	Y33	Z33	X34	Y34	Z34	X35	Y35	Z35	X36	Y36	Z36	X37	Y37	Z37	X38	Y38	Z38	X39	Y39	Z39	X40	Y40	Z40	X41	Y41	Z41	X42	Y42	Z42	X43	Y43	Z43	X44	Y44	Z44	X45	Y45	Z45	X46	Y46	Z46	X47	Y47	Z47	X48	Y48	Z48	X49	Y49	Z49	X50	Y50	Z50	X51	Y51	Z51	X52	Y52	Z52	X53	Y53	Z53	X54	Y54	Z54	X55	Y55	Z55	X56	Y56	Z56	X57	Y57	Z57	X58	Y58	Z58	X59	Y59	Z59	

74	0.73	-570.4718017578125	935.8380126953125	-27.5396671295166	-590.2242431640625	937.872802734375	-157.9921569824219	-580.67724609375	1020.402282714844	-95.09770202636719	-343.5570678710938	1161.500610351562	-114.7198104858398	-592.71484375	1120.311645507812	-111.2631759643555	-545.0714111328125	1366.392333984375	-128.4154357910156	-396.8623352050781	1280.688354492188	-115.6328659057617	-599.3902587890625	1221.588012695312	-67.67155456542969	-560.5340576171875	1332.638305664062	-233.1143035888672	-469.8069152832031	1343.389282226562	-279.76123046875	-492.1278381347656	1224.74365234375	-349.2467651367188	-455.2596435546875	1040.957885742188	-380.4002685546875	-500.470458984375	999.3500366210938	-321.6351928710938	-261.0615234375	944.2608032226562	-369.6560668945312	-296.9384155273438	896.9644165039062	-427.2452392578125	-396.2971801757812	968.5923461914062	-400.0287170410156	-224.4592132568359	852.0393676757812	-434.6972351074219	-183.2757873535156	893.3378295898438	-408.4828186035156	-499.1478881835938	1337.330200195312	32.74844360351562	-527.7313842773438	1276.316284179688	84.16412353515625	-601.7891845703125	1024.585571289062	92.42901611328125	-586.9808959960938	1020.055847167969	-2.363149881362915	-544.0686645507812	780.3804321289062	99.98265075683594	-610.3054809570312	787.0285034179688	133.4946594238281	-605.8727416992188	956.7412109375	111.1489105224609	-599.930908203125	617.0450439453125	86.72412872314453	-570.8178100585938	678.993408203125	117.053825378418	-633.5364379882812	700.5759887695312	128.5995635986328	-490.5634460449219	1550.17724609375	-35.15649795532227	-348.2646484375	1540.979858398438	-173.4106597900391	-359.4848327636719	1544.959716796875	-50.77624130249023	-494.569091796875	1544.729370117188	-197.054931640625	-454.630859375	928.8703002929688	69.59593200683594	-350.9424133300781	927.872802734375	-9.423498153686523	-404.3424072265625	914.669677734375	-267.3269958496094	-576.5598754882812	440.4356079101562	-242.6749267578125	-548.109130859375	582.2339477539062	-266.1292419433594	-826.907470703125	63.91854095458984	-173.4324645996094	-707.99951171875	240.2528991699219	-220.4289703369141	-614.0592041015625	40.232177734375	-108.1006851196289	-693.2188110351562	51.2602424621582	-79.240478515625	-703.4676513671875	40.87501907348633	-184.5271148681641	-863.035888671875	78.69872283935547	-116.9037628173828	-255.0010375976562	470.1510925292969	15.24518299102783	-333.7041015625	719.1159057617188	46.76179885864258	-134.3874053955078	52.15979766845703	-28.89235687255859	-200.936279296875	356.7058715820312	-1.808095574378967	22.50703620910645	101.0743560791016	-105.6433410644531	-47.59110641479492	83.76659393310547	-130.6088562011719	-49.49050521850586	58.54279327392578	-32.37172317504883	-205.4422912597656	28.34910202026367	-78.56068420410156	-128.8962860107422	826.5419921875	-406.0692443847656	-517.0079345703125	923.2476196289062	-289.7310485839844	nan	nan	nan	nan	nan	nan	nan	nan	nan	nan	nan	nan	nan	nan	nan	nan	nan	nan	
75	0.74	-557.219482421875	935.593017578125	-26.94266128540039	-577.2175903320312	937.0092163085938	-157.4621429443359	-567.4368896484375	1019.397766113281	-94.8720703125	-331.2621459960938	1160.785034179688	-114.3953628540039	-580.3231201171875	1119.413452148438	-110.6260528564453	-533.3951416015625	1365.52294921875	-127.2863006591797	-384.6289672851562	1279.954711914062	-114.8688430786133	-587.10595703125	1220.435546875	-66.86613464355469	-548.8760986328125	1331.886596679688	-232.0616912841797	-458.16748046875	1342.8251953125	-278.7868957519531	-480.5832824707031	1224.072021484375	-348.1006774902344	-444.0458984375	1040.142211914062	-379.0217895507812	-489.2175598144531	998.8236694335938	-319.9497680664062	-250.1142730712891	942.8359985351562	-368.4570007324219	-286.3368835449219	895.4019775390625	-425.7477111816406	-385.3597106933594	967.4927978515625	-398.5916748046875	-213.9183349609375	850.3636474609375	-433.3349609375	-172.5940246582031	891.8070678710938	-407.3815002441406	-486.9720764160156	1336.093383789062	33.80654907226562	-515.3894653320312	1274.817993164062	85.06931304931641	-589.3971557617188	1023.0908203125	92.48359680175781	-574.2776489257812	1018.705383300781	-2.215279579162598	-532.6060180664062	778.6529541015625	99.708251953125	-598.8485107421875	785.5867309570312	133.0742034912109	-593.6401977539062	955.3084106445312	111.1533279418945	-589.4403686523438	615.7733154296875	85.55672454833984	-558.7528076171875	678.343017578125	116.2676391601562	-622.5825805664062	699.3064575195312	127.7414321899414	-479.5447387695312	1549.343017578125	-34.16947174072266	-337.6119995117188	1540.87060546875	-172.8728485107422	-348.4765014648438	1544.854248046875	-50.21501159667969	-484.0405578613281	1543.843383789062	-196.0691680908203	-441.1571350097656	929.1224975585938	70.02609252929688	-337.8485717773438	927.4154052734375	-9.469583511352539	-391.5437316894531	913.0904541015625	-267.4149169921875	-566.47998046875	439.6741333007812	-241.9999694824219	-537.0654907226562	581.1845703125	-265.3223571777344	-825.25146484375	67.96857452392578	-174.3386077880859	-702.373291015625	242.4076690673828	-220.6232604980469	-613.7831420898438	40.07277297973633	-108.1192855834961	-692.2847290039062	52.56573867797852	-79.75692749023438	-702.5411376953125	40.99233245849609	-184.791259765625	-861.0136108398438	84.52980804443359	-117.9623260498047	-241.9994964599609	470.1165466308594	13.30146026611328	-320.0241088867188	718.840087890625	46.48704528808594	-130.9279479980469	50.87961578369141	-30.26050758361816	-189.7071380615234	355.6525268554688	-4.308663368225098	28.29493713378906	92.15322875976562	-107.5970153808594	-43.10189437866211	77.47657012939453	-132.4657897949219	-45.93686294555664	54.14178848266602	-34.08188629150391	-203.001708984375	29.31699371337891	-79.76242828369141	-118.2712478637695	824.884033203125	-405.146240234375	-504.352294921875	921.6504516601562	-289.5429077148438	nan	nan	nan	nan	nan	nan	nan	nan	nan	nan	nan	nan	nan	nan	nan	nan	nan	nan	
76	0.75	-543.7979125976562	935.8045043945312	-26.43599319458008	-563.9625244140625	936.478759765625	-157.0473937988281	-554.0006103515625	1018.693420410156	-94.70514678955078	-318.8043518066406	1160.473266601562	-114.0572891235352	-567.7958984375	1118.87744140625	-109.9862060546875	-521.6326904296875	1365.01611328125	-126.141487121582	-372.2535400390625	1279.602172851562	-114.0868835449219	-574.6851806640625	1219.634521484375	-66.04140472412109	-537.10888671875	1331.494750976562	-230.9926452636719	-446.4122314453125	1342.646240234375	-277.7876892089844	-468.9631042480469	1223.811279296875	-346.9600830078125	-432.8291015625	1039.65673828125	-377.7438659667969	-478.0637512207031	998.721435546875	-318.3648986816406	-239.4295043945312	941.029541015625	-367.1626586914062	-276.1485900878906	893.5816650390625	-424.1754760742188	-374.5506286621094	966.5116577148438	-397.1859741210938	-203.9077453613281	848.1507568359375	-431.7999877929688	-162.3269348144531	889.5880737304688	-406.0648803710938	-474.6860961914062	1335.214233398438	34.88795471191406	-502.909423828125	1273.645874023438	86.00009918212891	-576.651123046875	1021.860961914062	92.70205688476562	-561.1436157226562	1017.608093261719	-1.867508172988892	-520.6337280273438	777.2662353515625	99.52142333984375	-586.8013916015625	784.4219360351562	132.8363189697266	-580.9815673828125	954.1559448242188	111.3187942504883	-578.3306274414062	614.804931640625	84.52532196044922	-545.5928955078125	678.0474243164062	115.6732177734375	-610.9940795898438	698.3084716796875	127.0774002075195	-468.4481506347656	1548.91357421875	-33.17675399780273	-326.8836975097656	1541.14599609375	-172.3293151855469	-337.3812255859375	1545.148803710938	-49.65861129760742	-473.4281005859375	1543.333862304688	-195.0679168701172	-427.5903015136719	929.8889770507812	70.51157379150391	-324.6277160644531	927.38671875	-9.398540496826172	-378.3963317871094	911.7953491210938	-267.3861999511719	-555.7666015625	439.1332092285156	-241.3727264404297	-525.512451171875	580.3449096679688	-264.4851989746094	-823.1854248046875	72.57255554199219	-175.4199829101562	-696.1810302734375	244.9971008300781	-220.8923950195312	-613.5176391601562	39.95925140380859	-108.1821517944336	-691.1431274414062	54.0447883605957	-80.36840057373047	-701.4653930664062	41.12409210205078	-185.1224517822266	-858.5062866210938	91.15132904052734	-119.2748413085938	-229.0790557861328	470.485595703125	11.38754272460938	-306.3787536621094	718.9315185546875	46.44355010986328	-128.2664642333984	49.9521484375	-31.49143218994141	-178.6065216064453	354.9913024902344	-6.798743724822998	33.35903167724609	83.01276397705078	-109.3958435058594	-39.29628753662109	71.14981842041016	-134.1120910644531	-43.27892303466797	50.07864379882812	-35.549560546875	-201.3395080566406	30.71596336364746	-80.82302856445312	-108.3260498046875	822.3441772460938	-403.939453125	-491.3083801269531	920.3056030273438	-289.3133850097656	nan	nan	nan	nan	nan	nan	nan	nan	nan	nan	nan	nan	nan	nan	nan	nan	nan	nan	
77	0.76	-530.2613525390625	936.4791870117188	-26.04635429382324	-550.4879150390625	936.2896728515625	-156.7669982910156	-540.4060668945312	1018.328552246094	-94.62150573730469	-306.2062683105469	1160.596435546875	-113.7096710205078	-555.1685180664062	1118.729125976562	-109.3478851318359	-509.7905578613281	1364.886962890625	-124.9943771362305	-359.7688598632812	1279.66357421875	-113.299690246582	-562.164306640625	1219.214721679688	-65.20486450195312	-525.2401733398438	1331.481201171875	-229.9133911132812	-434.5635986328125	1342.873291015625	-276.7761535644531	-457.2932434082031	1223.984008789062	-345.8363647460938	-421.6074829101562	1039.52880859375	-376.5882568359375	-466.9883728027344	999.069580078125	-316.9032592773438	-229.0264282226562	938.8483276367188	-365.7843933105469	-266.3791198730469	891.534423828125	-422.5516357421875	-363.8661499023438	965.67529296875	-395.8307189941406	-194.4525604248047	845.4146728515625	-430.1003112792969	-152.4936370849609	886.6787719726562	-404.5435180664062	-462.3186950683594	1334.727172851562	35.97554779052734	-490.3216247558594	1272.8408203125	86.94546508789062	-563.56005859375	1020.935729980469	93.08785247802734	-547.6419067382812	1016.813049316406	-1.342524886131287	-508.1118774414062	776.2593383789062	99.43053436279297	-574.1480712890625	783.5698852539062	132.7841644287109	-567.8919677734375	953.3193969726562	111.6424865722656	-566.5559692382812	614.1615600585938	83.66416168212891	-531.39599609375	678.0734252929688	115.2802810668945	-598.7476806640625	697.608154296875	126.6236114501953	-457.2647094726562	1548.905883789062	-32.18071746826172	-316.0820617675781	1541.804931640625	-171.7775421142578	-326.1997985839844	1545.8427734375	-49.10406875610352	-462.7337646484375	1543.212646484375	-194.0544586181641	-413.9773254394531	931.1865844726562	70.99053955078125	-311.3053588867188	927.8331298828125	-9.222209930419922	-364.9552307128906	910.830322265625	-267.2239074707031	-544.3248291015625	438.8132019042969	-240.8405609130859	-513.3992309570312	579.7196655273438	-263.6409301757812	-820.5999755859375	77.75059509277344	-176.6828918457031	-689.3313598632812	248.0271606445312	-221.2819213867188	-613.275634765625	39.88463973999023	-108.2915496826172	-689.751708984375	55.68594360351562	-81.090576171875	-700.2342529296875	41.27804565429688	-185.5206451416016	-855.354248046875	98.57563781738281	-120.8457565307617	-216.2727661132812	471.2384338378906	9.544833183288574	-292.8130798339844	719.4037475585938	46.61893463134766	-126.1252670288086	49.37440872192383	-32.57878112792969	-167.6414489746094	354.7214965820312	-9.21241569519043	37.69053268432617	74.25314331054688	-111.0964736938477	-36.08336639404297	65.19221496582031	-135.5764007568359	-41.27011108398438	46.61917877197266	-36.79045867919922	-200.1310577392578	32.3537483215332	-81.68862915039062	-99.08746337890625	818.9317016601562	-402.4229431152344	-477.9254150390625	919.2528686523438	-289.045654296875	nan	nan	nan	nan	nan	nan	nan	nan	nan	nan	nan	nan	nan	nan	nan	nan	nan	nan	
